# xmcd CD database file
#
# Track frame offsets:
#	150
#	17562
#	33951
#	50273
#	65389
#	85663
#	109630
#	125700
#	149828
#	172331
#	192546
#	211966
#	231882
#	248212
#	265606
#	281033
#	295712
#	310389
#	325064
#
# Disc length: 4531 seconds
#
# Revision: 3
# Processed by: cddbd v1.5.1PL2 Copyright (c) Steve Scherf et al.
# Submitted via: jetAudio 5
#
DISCID=1e11b113
DTITLE=R. Kelly - TP.3 Reloaded
DYEAR=1900
DGENRE=
TTITLE0=Playa's Only
TTITLE1=Happy Summertime
TTITLE2=In the Kitchen
TTITLE3=Slow Wind
TTITLE4=Put My T-Shirt On
TTITLE5=Remote Control
TTITLE6=Kickin' It With Your Girlfriend
TTITLE7=Reggae Bump Bump
TTITLE8=Touchin'
TTITLE9=Girls Go Crazy
TTITLE10=Hit It Til the Mornin'
TTITLE11=Sex Weed
TTITLE12=(Sex) Love Is What We Makin'
TTITLE13=Burn It Up
TTITLE14=Trapped In the Closet Chapter 1
TTITLE15=Trapped In the Closet Chapter 2
TTITLE16=Trapped In the Closet Chapter 3
TTITLE17=Trapped In the Closet Chapter 4
TTITLE18=Trapped In the Closet Chapter 5
EXTD=
EXTT0=
EXTT1=
EXTT2=
EXTT3=
EXTT4=
EXTT5=
EXTT6=
EXTT7=
EXTT8=
EXTT9=
EXTT10=
EXTT11=
EXTT12=
EXTT13=
EXTT14=
EXTT15=
EXTT16=
EXTT17=
EXTT18=
PLAYORDER=
